<svg xmlns="http://www.w3.org/2000/svg" width="16" height="16"><path style="stroke:none;fill-rule:evenodd;fill:#f1f1f1;fill-opacity:1" d="M2.324.02a.888.888.0 00-.355.293c-.02.027-.035.05-.04.054.0.0-.015.028-.027.055-.011.023-.023.047-.027.047s-.02.023-.027.05C1.836.548 1.824.57 1.82.57c-.008.0-.02.04-.03.082a.515.515.0 01-.028.09c-.008.004-.02.082-.035.172-.012.09-.032.176-.036.188-.054.12-.062 3.226-.011 3.949.011.148.02.289.05 1.008.012.226.028.418.032.418.004.003.008.015.008.03.0.044.035.227.046.235a.243.243.0 01.024.059.836.836.0 00.094.203.187.187.0 01.023.043c.023.047.2.223.219.223a.06.06.0 01.031.015c.02.02.113.05.148.05.012.0.024.009.024.013.0.015.277.015.305.0.011-.004.078-.02.148-.028a.701.701.0 00.129-.027c0-.008.035-.02.082-.031a.527.527.0 00.105-.035c.012-.004.047-.02.079-.028.027-.008.054-.02.054-.023.0-.004.004-.008.008-.008a.307.307.0 00.047-.016.349.349.0 01.074-.027c.016-.004.031-.012.031-.016s.024-.02.055-.03a.205.205.0 00.059-.028c.004-.004.047-.028.097-.055a.95.95.0 00.098-.059c0-.003.023-.015.05-.027.024-.015.052-.027.055-.035.04-.027.157-.098.176-.102.016-.003.028-.011.028-.02.0-.003.02-.015.043-.026.027-.012.046-.024.046-.028a.56.56.0 01.102-.058c.055-.028.102-.055.105-.059a.448.448.0 01.075-.035.401.401.0 00.074-.031.26.26.0 01.066-.032.198.198.0 00.059-.027c0-.004.023-.02.059-.031.03-.008.054-.024.054-.028.0-.003.024-.015.051-.027.031-.012.055-.023.055-.027s.02-.02.043-.032c.027-.007.046-.023.046-.027s.024-.02.047-.031c.055-.027.059-.031.176-.106.043-.027.102-.062.125-.074.027-.011.05-.027.055-.035.004-.012.015-.016.023-.016a.828.828.0 00.157-.093.309.309.0 01.05-.032c.04-.02.075-.043.11-.066.035-.02.078-.047.101-.055.02-.011.035-.023.035-.027s.024-.02.051-.031a.326.326.0 00.067-.043c.011-.008.027-.02.03-.02a.214.214.0 00.063-.035c.028-.016.055-.031.059-.031.004.0.012-.008.02-.012a1.37 1.37.0 01.167-.105c.008.0.012-.004.012-.012.0-.004.004-.008.012-.004s.012.004.012-.004c0-.004.02-.02.043-.031.023-.012.046-.027.054-.031a.96.96.0 01.164-.098c.008.0.012-.008.012-.012.0-.008.012-.02.027-.023a.465.465.0 00.067-.04c.027-.015.05-.03.054-.03.004.0.016-.008.024-.016a.171.171.0 01.062-.043.326.326.0 00.067-.043c.015-.012.031-.024.039-.024s.02-.007.023-.015c.004-.012.012-.02.016-.02a.5.5.0 00.129-.078c.07-.047.105-.07.117-.07.008.0.016-.004.016-.012.0-.004.02-.02.047-.031.043-.024.113-.066.152-.098a.186.186.0 01.062-.031c.02-.008.036-.02.036-.023.0-.004.015-.016.039-.028.054-.031.23-.144.234-.156.0-.004.008-.008.016-.008a.165.165.0 00.054-.035.165.165.0 01.055-.035c.008.0.02-.008.027-.024.008-.011.02-.02.024-.02a.907.907.0 00.156-.128c.012-.008.04-.035.063-.059.03-.023.054-.054.082-.082l.058-.07a.337.337.0 00.04-.062c.007-.02.015-.036.023-.036.004.0.02-.027.03-.062a.403.403.0 01.04-.082c.016-.024.02-.344.0-.356a.331.331.0 01-.035-.09c-.016-.046-.031-.081-.04-.081-.003.0-.015-.024-.027-.047-.011-.024-.023-.047-.027-.047s-.016-.016-.027-.035c-.012-.02-.032-.043-.04-.055-.019-.023-.035-.043-.054-.063a1.956 1.956.0 00-.274-.261c-.035-.032-.074-.059-.109-.09a2.128 2.128.0 00-.207-.14.415.415.0 01-.043-.036c-.012-.012-.023-.016-.023-.008.0.004-.004.004-.008-.004-.008-.007-.027-.02-.047-.03-.02-.013-.04-.024-.04-.028s-.019-.02-.042-.031c-.027-.012-.047-.024-.047-.032.0-.004-.02-.015-.039-.023-.023-.012-.039-.027-.039-.031.0-.008-.008-.012-.016-.012a.28.28.0 01-.062-.035.211.211.0 00-.059-.032.102.102.0 01-.031-.023.409.409.0 00-.074-.047c-.028-.015-.055-.031-.055-.035a.292.292.0 00-.047-.027.265.265.0 01-.054-.035.06.06.0 00-.032-.016c-.008.0-.023-.012-.035-.02a.275.275.0 00-.07-.043l-.051-.03c0-.005-.02-.016-.043-.028-.02-.012-.062-.035-.09-.055l-.113-.062a.486.486.0 01-.063-.036c0-.003-.023-.02-.05-.03a.428.428.0 01-.055-.032 1.48 1.48.0 00-.168-.094c-.012-.004-.023-.012-.023-.015.0-.004-.02-.02-.047-.032a.668.668.0 01-.14-.082c-.009-.008-.02-.008-.02-.004-.004.004-.008.0-.008-.007.0-.008-.012-.016-.024-.02a1.916 1.916.0 01-.168-.094.428.428.0 00-.054-.031c-.028-.012-.051-.027-.059-.031-.02-.02-.137-.09-.16-.102l-.074-.043a7.294 7.294.0 00-.352-.191C4.984.96 4.973.953 4.973.949c0-.008-.008-.011-.016-.011-.004.0-.086-.036-.172-.083A1.805 1.805.0 004.594.77 1.97 1.97.0 004.43.68 2.337 2.337.0 014.262.594C4.258.59 4.238.582 4.219.57a.91.91.0 01-.13-.062A3.273 3.273.0 003.81.37C3.793.367 3.78.36 3.78.355c0-.007-.004-.011-.011-.011A.575.575.0 013.686.309L3.579.262A.163.163.0 013.532.238.397.397.0 003.442.207.651.651.0 013.356.172.281.281.0 003.29.148.325.325.0 013.208.121.75.75.0 003.091.086.402.402.0 012.997.059c-.031-.043-.574-.075-.672-.04M9.54 4.07c-.035.008-.074.016-.094.028-.02.007-.05.02-.074.027-.043.02-.055.027-.121.094a.458.458.0 00-.113.144c-.012.028-.024.047-.028.047s-.015.027-.027.063a.63.63.0 01-.035.082.594.594.0 00-.035.11 1.366 1.366.0 00-.074.355c0 .015-.004.03-.012.035-.035.011-.04.355-.04 2.406.0 1.621-.003 2.05-.015 2.062-.02.016-.02.997-.004 1.008.008.004.012.035.012.07.0.086.035.41.047.415a.31.31.0 01.023.082.824.824.0 00.196.375.813.813.0 00.238.168.616.616.0 01.09.043c.07.03.293.043.394.015a2.99 2.99.0 00.309-.09.325.325.0 01.082-.027.37.37.0 00.062-.027.422.422.0 01.07-.028c.036-.011.067-.023.067-.03.0-.005.016-.013.04-.017a.465.465.0 00.097-.043c.035-.015.097-.046.144-.07.043-.02.09-.047.11-.055.015-.011.047-.023.07-.035.023-.007.043-.015.043-.02.0-.003.023-.019.055-.03a.25.25.0 00.062-.028c.016-.011.098-.058.156-.086a.292.292.0 00.047-.027c0-.004.028-.016.059-.027.031-.012.055-.028.055-.032s.003-.007.007-.007a.496.496.0 00.063-.024c.031-.012.062-.023.066-.023.008.0.012-.008.012-.012.0-.008.027-.02.062-.031.036-.012.063-.024.063-.028s.027-.02.059-.027a.304.304.0 00.078-.035.034.034.0 01.023-.016c.008.0.05-.02.098-.043.047-.02.09-.039.097-.039.004.0.012-.004.012-.008.0-.007.024-.02.055-.035.055-.027.062-.031.16-.09.031-.02.063-.039.07-.039a.571.571.0 01.082-.05c.02-.012.04-.024.043-.028a.793.793.0 01.051-.035c.05-.027.11-.062.168-.102a.186.186.0 01.055-.023c.008.0.011-.008.011-.012.0-.008.016-.02.032-.027a.862.862.0 00.082-.043.14.14.0 01.058-.031c.004.0.016-.008.024-.02a.165.165.0 01.054-.035c.024-.012.051-.031.067-.039.012-.012.027-.023.035-.023.008.0.02-.004.027-.012.008-.012.036-.027.055-.04a.287.287.0 00.063-.042c.011-.012.027-.02.035-.02a.312.312.0 00.054-.031.417.417.0 01.075-.043c.015-.004.027-.012.027-.016.0-.003.02-.02.043-.03a.287.287.0 00.062-.044c.016-.008.032-.02.04-.02.007.0.019-.003.027-.015.008-.008.035-.023.055-.035a.309.309.0 00.05-.031 2.072 2.072.0 01.203-.121c0-.004.02-.02.043-.032a.292.292.0 00.047-.027.456.456.0 01.055-.035c.105-.059.121-.067.137-.082.011-.008.039-.024.058-.035.043-.02.059-.032.137-.079a.218.218.0 01.055-.03c.004.0.035-.02.066-.044.035-.02.066-.039.074-.039s.012-.004.012-.011c0-.004.02-.02.04-.028.023-.012.042-.023.042-.027.0-.008.008-.012.02-.016a.429.429.0 00.082-.05c.007-.008.07-.06.136-.11l.16-.133a2.057 2.057.0 00.235-.297c.008-.02.023-.035.027-.035s.02-.027.028-.058c.011-.032.027-.055.03-.055a.292.292.0 00.028-.074.778.778.0 01.031-.086c.055-.07.055-.567.0-.633a1.082 1.082.0 01-.03-.074c-.009-.035-.024-.059-.028-.059s-.016-.023-.028-.055c-.011-.027-.023-.05-.027-.05s-.02-.016-.031-.035a.217.217.0 00-.035-.051l-.051-.063c-.098-.117-.438-.422-.473-.422a.115.115.0 01-.039-.027c-.02-.012-.047-.035-.062-.047-.13-.09-.153-.11-.168-.121-.012-.008-.035-.027-.059-.039-.023-.012-.043-.027-.043-.031s-.02-.016-.043-.028c-.02-.011-.039-.023-.039-.027.0-.008-.012-.016-.027-.023a1.25 1.25.0 01-.094-.063l-.082-.059c-.012-.003-.05-.03-.086-.054a4.336 4.336.0 00-.101-.067.309.309.0 01-.043-.03.456.456.0 00-.055-.036c-.027-.012-.047-.027-.047-.035.0-.004-.008-.012-.016-.012A1.291 1.291.0 0113.61 6c-.007.0-.18-.113-.21-.133-.004-.008-.028-.02-.051-.031-.028-.016-.043-.027-.043-.031a.173.173.0 00-.047-.028c-.028-.011-.047-.023-.047-.027a.189.189.0 00-.05-.035.25.25.0 01-.063-.04c-.008-.01-.02-.019-.024-.019-.008.0-.031-.015-.062-.035-.028-.016-.051-.031-.055-.031a.297.297.0 01-.059-.035.214.214.0 00-.062-.035c-.008.0-.012-.004-.016-.012a.71.71.0 00-.129-.082.309.309.0 01-.05-.031.486.486.0 00-.063-.036c-.031-.015-.062-.03-.062-.035a.325.325.0 00-.055-.027.428.428.0 01-.055-.031 1.55 1.55.0 00-.144-.079c-.028-.015-.055-.027-.055-.03a.33.33.0 00-.059-.032.205.205.0 01-.058-.027c0-.004-.027-.016-.05-.028-.028-.011-.052-.027-.052-.03.0-.009-.004-.009-.008-.009a.767.767.0 01-.128-.058.33.33.0 00-.059-.032c-.031-.007-.055-.023-.055-.027a.198.198.0 00-.058-.027.198.198.0 01-.059-.028c0-.004-.02-.015-.05-.027-.028-.012-.051-.027-.051-.031s-.024-.02-.055-.031a.577.577.0 01-.098-.051.1.1.0 01-.047-.024c-.015-.011-.027-.02-.027-.011.0.003-.004.003-.012-.004a.128.128.0 00-.047-.035c-.03-.016-.066-.032-.097-.051-.035-.02-.07-.04-.11-.059a.25.25.0 01-.062-.039.355.355.0 00-.055-.027c-.023-.008-.043-.02-.043-.024s-.023-.015-.05-.027c-.028-.012-.051-.023-.051-.031a.008.008.0 00-.008-.008.263.263.0 01-.067-.024.496.496.0 00-.062-.023c-.008.0-.012-.004-.012-.012s-.027-.02-.062-.03c-.035-.009-.063-.02-.063-.024.0-.008-.035-.02-.074-.032-.043-.011-.074-.023-.074-.03a.338.338.0 00-.09-.028.625.625.0 01-.094-.028 1.267 1.267.0 00-.226-.046c-.012.0-.024-.004-.024-.008.0-.008-.05-.016-.113-.02s-.133-.008-.156-.011a.962.962.0 00-.102.007M2.313 8.566a.37.37.0 00-.063.028.198.198.0 01-.059.027c-.027.012-.054.027-.058.04-.004.007-.012.015-.02.015-.035.0-.21.21-.27.32a.202.202.0 01-.027.043.37.37.0 00-.027.063c-.012.03-.023.062-.031.062a2.04 2.04.0 00-.086.332c-.04.2-.02 5.43.02 5.469.007.008.011.023.011.043.0.047.047.312.055.316.008.004.02.04.031.074.012.04.024.075.027.075.004.004.016.03.032.058a.32.32.0 00.035.067c.008.007.02.027.027.039a.6.6.0 00.156.168c.008.0.02.011.024.02a.135.135.0 00.05.038c.024.008.044.02.044.024s.027.015.058.027a.328.328.0 01.067.027c.043.067.625.067.675.0.0-.004.047-.015.094-.027a.518.518.0 00.106-.027c.003-.008.043-.02.086-.032.039-.007.074-.02.078-.027a.397.397.0 01.09-.031.292.292.0 00.082-.035c0-.004.027-.02.062-.028.035-.011.063-.027.063-.03.0-.009.007-.013.015-.013a1.778 1.778.0 00.27-.132c.039-.02.074-.04.11-.063.026-.016.054-.027.081-.043.035-.015.156-.09.172-.105a.174.174.0 01.055-.028.191.191.0 00.05-.03.197.197.0 01.059-.032c.023-.008.047-.02.047-.024s.023-.02.055-.027a.33.33.0 00.058-.031.323.323.0 01.07-.031c.032-.016.063-.032.067-.036a.223.223.0 01.059-.03c.035-.02.07-.04.109-.06.031-.019.066-.042.082-.05a.443.443.0 00.074-.047.217.217.0 01.059-.031.03.03.0 00.02-.008.575.575.0 01.093-.063c.05-.03.098-.058.105-.066a.355.355.0 01.055-.027.13.13.0 00.05-.036c.009-.007.02-.015.028-.015a.297.297.0 00.059-.035.28.28.0 01.062-.036c.008.0.02-.007.028-.015a.25.25.0 01.062-.04c.047-.027.055-.03.149-.09a.35.35.0 01.07-.038c.008.0.012-.004.012-.008s.027-.02.054-.035a.486.486.0 00.063-.035c.004-.008.02-.02.043-.028.039-.02.113-.066.137-.086a.265.265.0 01.054-.035.156.156.0 00.063-.039c.011-.011.027-.02.035-.02a.13.13.0 00.05-.027.243.243.0 01.067-.039c.016-.008.031-.015.031-.023.0-.004.024-.02.051-.031.027-.012.05-.024.05-.032.0-.004.02-.015.04-.027.023-.012.039-.023.039-.027s.008-.008.012-.008c.011.0.14-.078.168-.106.008-.004.015-.007.02-.004.003.004.015-.003.023-.019.011-.012.027-.023.035-.023s.023-.008.035-.02c.012-.016.027-.023.031-.023.008.0.035-.02.067-.04a.273.273.0 01.066-.042c.008.0.012-.004.012-.012.0-.004.011-.016.027-.02.024-.011.297-.187.344-.226.016-.008.039-.024.055-.032.02-.007.03-.015.03-.02.0-.007.02-.019.04-.026a.287.287.0 00.047-.036c.004-.007.015-.015.02-.015.007.0.034-.02.062-.04a.358.358.0 01.054-.042c.008.0.04-.024.082-.063a.083.083.0 01.036-.027c.02.0.332-.313.34-.344.003-.012.015-.023.019-.023.008.0.02-.016.031-.04.008-.023.024-.038.028-.038s.011-.016.02-.04c.015-.03.03-.066.042-.097.05-.11.047-.348.0-.43a.534.534.0 01-.035-.078.211.211.0 00-.027-.055c-.008.0-.02-.02-.032-.043-.011-.027-.023-.046-.027-.046s-.016-.016-.027-.036c-.024-.039-.032-.05-.168-.191a.951.951.0 00-.14-.129 1.155 1.155.0 00-.2-.148c-.02-.012-.035-.028-.035-.036.0-.003-.008-.007-.016-.007-.012.0-.039-.016-.062-.035a.33.33.0 00-.055-.036.297.297.0 01-.059-.035.297.297.0 00-.058-.035c-.008.0-.02-.008-.032-.02-.011-.015-.027-.023-.03-.023a.214.214.0 01-.063-.035.297.297.0 00-.059-.035.074.074.0 01-.031-.02.213.213.0 00-.067-.039c-.023-.012-.043-.027-.043-.031.0-.008-.011-.016-.023-.02-.016-.004-.047-.023-.074-.039a.297.297.0 00-.059-.035c-.008.0-.02-.008-.027-.015a.172.172.0 00-.063-.04c-.027-.015-.05-.027-.05-.035.0-.004-.012-.015-.024-.02a.275.275.0 01-.074-.038c-.023-.016-.055-.031-.063-.035-.011-.004-.023-.012-.023-.02s-.012-.016-.023-.02c-.016-.003-.047-.023-.075-.039a.33.33.0 00-.054-.035c-.004.0-.028-.015-.055-.03a.28.28.0 00-.063-.036c-.007.0-.019-.012-.03-.024-.012-.011-.024-.023-.032-.023a.297.297.0 01-.059-.035.297.297.0 00-.058-.035.218.218.0 01-.055-.032.217.217.0 00-.066-.035c-.004.0-.012-.004-.012-.011.0-.004-.016-.016-.035-.028-.024-.011-.067-.039-.102-.058-.031-.02-.066-.04-.101-.059-.02-.012-.035-.023-.035-.031.0-.004-.004-.004-.012.0s-.012.0-.012-.004c0-.008-.016-.016-.031-.024a.298.298.0 01-.05-.027.323.323.0 00-.06-.035.227.227.0 01-.046-.031c-.004-.008-.028-.02-.051-.032a.29.29.0 01-.063-.039c-.011-.011-.027-.02-.035-.02s-.023-.01-.031-.019a.172.172.0 00-.063-.039c-.027-.011-.05-.027-.054-.035-.004-.008-.028-.02-.055-.031-.023-.008-.043-.02-.043-.024.0-.007-.02-.02-.047-.03a.173.173.0 01-.047-.028c0-.004-.02-.02-.043-.027-.027-.012-.046-.028-.046-.032s-.02-.015-.047-.027c-.024-.012-.043-.024-.043-.027a.226.226.0 00-.059-.036.226.226.0 01-.059-.035c0-.008-.003-.011-.015-.011a.078.078.0 01-.043-.024c-.016-.012-.031-.02-.035-.016-.004.004-.008.004-.008-.003.0-.008-.016-.016-.031-.024-.016-.008-.063-.031-.102-.055-.039-.02-.078-.043-.117-.062-.031-.016-.055-.027-.059-.031-.004-.008-.03-.02-.058-.032-.032-.011-.055-.023-.055-.027.0-.008-.008-.012-.012-.012-.015.0-.23-.105-.242-.113.0-.004-.027-.02-.058-.031-.032-.008-.055-.024-.055-.027.0-.004-.024-.016-.055-.028a.198.198.0 01-.058-.027c0-.008-.024-.02-.047-.031a.32.32.0 01-.067-.036c-.008-.007-.02-.015-.027-.015-.004.0-.05-.024-.098-.047a.453.453.0 00-.097-.047.008.008.0 01-.008-.008c0-.008-.012-.015-.024-.02-.015-.003-.058-.023-.097-.038-.035-.016-.078-.036-.094-.04a.1.1.0 01-.035-.015.483.483.0 00-.145-.047c-.008.0-.015-.004-.015-.012a.402.402.0 00-.094-.027.513.513.0 01-.106-.031c-.046-.035-.5-.055-.586-.028"/></svg>