<svg xmlns="http://www.w3.org/2000/svg" width="140" height="140" viewBox="0 0 1400 1400">
  <defs>
    <style>
      .cls-1 {
        fill-rule: evenodd;
      }
    </style>
  </defs>
  <path id="cyb_1" data-name="cyb 1" class="cls-1" fill="#eeeeee" d="M228.969,0.843h877.8c29.14,0,63.14-3.25,87.88,3,47.78,12.061,82.34,28.805,115.85,53.946,9.14,6.863,18.03,16.779,24.96,25.974,5.91,7.83,14.24,14.8,19.98,22.977,20.73,29.54,32.36,63.687,41.94,104.894,4.26,18.34,2,41.841,2,62.937V1121.72c0,24.79,2.25,52.09-3,72.92-9.67,38.33-21.3,70.91-40.94,98.9-5.74,8.18-14.07,15.15-19.98,22.98-6.94,9.2-15.81,19.11-24.96,25.98-33.49,25.12-68.05,41.95-115.85,53.94q-11.475,1-22.96,2c-8.94,1.94-22.35,1-32.96,1H280.9c-25.362,0-53.56,2.39-74.9-3-64.771-16.35-117.672-44.4-151.794-90.91-23.4-31.89-38.655-65.92-49.932-110.89-5.358-21.36-2.995-49.53-3-74.92V291.551c0-22.179-3.491-53.028,1-72.927,6.748-29.9,12.791-55.52,23.967-79.92C51.61,83.33,104.486,39.381,162.061,15.828c13.6-5.564,29.217-8.281,43.94-11.988C212.885,2.106,223.4,4.352,228.969.843Zm440.4,149.849-55.924,5.994c-40.3,10.2-78.879,16.141-113.845,30.969C345.068,253.187,247.188,356.223,183.032,512.329c-13.453,32.734-17.964,69.581-26.963,106.893-2.823,11.705-1.5,24.034-3.995,34.965v14.985c-2.918,13.549-3.043,48.429,0,61.937q1,16.981,2,33.966C160.28,791.68,162.32,819.3,170.05,843c9.3,28.512,15.662,54.2,26.963,79.92C252.376,1048.93,352.392,1147.19,478.63,1202.64c31.677,13.91,66.192,24.58,102.859,34.96q26.461,4.5,52.928,8.99,9.985,0.5,19.973,1c16.04,3.5,37.114,1.99,55.924,2h20.972q24.963-2.5,49.932-5c37.328-9.04,74.119-13.5,106.854-26.97,30.2-12.43,61.071-24.57,87.88-40.96,98.778-60.39,179.168-143.36,227.688-253.743,16.84-38.309,26.43-79.355,37.95-123.876,3.71-14.324,1.65-27.851,4.99-42.957,3.84-17.336,6.36-67.548,2-86.912V654.187q-3.495-26.472-6.99-52.947c-10.11-38.9-18.82-75.643-32.95-108.891C1150,354.4,1052.82,253.031,916.034,193.649c-26.334-11.432-55-19.759-83.886-27.972l-50.93-9.99-24.966-2C731.451,148.106,698.424,150.746,669.37,150.692Zm34.952,321.677c127.292-2.542,216.716,36.578,295.6,82.917,2.5,1.471,4.79,5.13,6.99,6.993,3.83,3.24,8.73,4.149,12.98,6.993,9.58,6.4,17.82,16.123,26.97,22.977,2.88,2.161,6.07,2.724,8.98,5,0.34,1,.67,2,1,3,1.67,1.968,10.89,10.4,12.98,11.988,21.33,16.141,39.17,38.211,54.93,59.94,5.83,8.043,16.69,16.012,19.97,25.973-6.71,5.185-9.55,13.45-14.98,19.98-7.93,9.539-16.84,18.66-24.96,27.972-1.16,1.328-.79,3.743-2,5-43.29,44.722-91.54,81.908-147.8,113.886-5.294,3.009-10.445,3.236-15.978,5.994-21.543,10.738-46.147,19.5-69.905,28.971-17.186,6.85-39.39,8.682-56.923,13.986h-8.987c-4.277,1.058-13.823,2.891-17.976,4H772.23c-20.275,4.667-59.426,6.756-80.89,2H670.368c-14.21-3.27-30.3-1.948-44.938-5.994-19.565-5.408-45.507-8.5-63.913-15.984-21.089-8.579-42.041-16.534-62.915-24.975-7.5-3.035-15.077-9.276-21.97-12.987-8.153-4.39-16.472-5.8-23.967-10.989-13.275-9.186-27.032-19.492-39.946-28.971-34.479-25.309-64.264-52.791-90.876-85.914-6.44-8.015-27.769-28.518-28.961-38.96,8.212-6.063,12.938-16.646,18.975-24.975,3.158-4.358,8.71-7.771,11.983-11.988,12.9-16.614,26.672-32.737,41.943-46.953,40.429-37.638,88.962-67.822,140.808-93.906,6.439-3.239,12.528-2.954,18.975-5.994,30.624-14.439,67.667-22.711,103.858-31.968,18.933-4.842,39.452-1.758,58.92-5.994C693.492,472.248,700.654,474.694,704.322,472.369Zm-8.988,60.939c-3.476,2.551-9.119,1.553-13.98,3-10.743,3.191-22.316,6.2-31.957,10.989-41.88,20.816-69.976,52.985-87.88,97.9-10.705,26.854-9.712,72.652,0,98.9,2.781,7.518,2.693,13.816,5.992,20.979,19.172,41.634,53.851,72.779,99.864,87.912,18.368,6.041,54.625,13.385,78.892,6.993,49.133-12.943,87.657-34.4,109.851-73.926,3.672-6.54,10.076-13.6,12.982-20.979,5.038-12.8,8.312-26.816,11.984-40.959,8.781-33.823-5.03-78.789-15.979-99.9-19.471-37.543-47.672-66.564-88.879-81.918-11.037-4.112-23.859-5.781-34.952-8.991H695.334ZM533.555,571.27c-13.148,1.282-34.444,17.143-44.939,22.977a404.248,404.248,0,0,0-89.878,67.932c-7.4,7.381-30.713,26.064-31.956,36.962,5.068,3.343,7.046,8.541,10.985,12.987,5.709,6.445,12.878,11.884,18.974,17.982L407.726,742.1c26.683,20.211,50.178,41.028,80.89,57.942,10.677,5.881,21.371,11.965,32.955,17.982,2.627,1.365,9.01,6.476,10.985,5,0.7-1.522-9.584-20.529-11.984-24.975A274.732,274.732,0,0,1,502.6,756.084c-3.867-11.533-3.658-24.8-6.991-35.964V686.155c0.01-34.024,10.966-65.248,22.969-88.911C522.771,588.973,531.662,580.844,533.555,571.27Zm370.5,0c1.6,10.421,13.582,23.321,17.976,32.967,7.9,17.337,11.525,37.075,16.977,56.943q0.5,7.99,1,15.984c2.076,9.065,3.457,29.345,1,39.959-6.543,28.251-9.384,54.451-20.971,76.923-3.478,6.744-16.722,23.44-14.98,29.97,48.513-26.588,93.85-52.169,131.821-88.911,9.43-9.125,17.79-19.58,26.96-28.971,1.59-1.621,6.97-8.525,5.99-8.991-3.19-10.75-30.16-32.917-38.94-40.958-14.71-13.463-29.24-28.59-45.94-39.96-13.159-8.962-26.161-15.544-39.945-23.976C933.577,585.264,918.524,573.955,904.05,571.27Zm-296.6,95.9h3c6.241,20.044,44.075,39.182,72.9,26.973,11.528-4.883,22.658-15.7,28.96-25.974,11.237-18.314,6.839-47.932-3.994-62.937-4.887-6.769-16.232-10.633-19.973-17.982l1-1a258.8,258.8,0,0,0,26.963-4c10.13-2.235,31.391,4.211,37.948,6.993,30.815,13.07,51.674,27.761,66.909,55.944,27.677,51.2,2.237,117.155-30.958,141.857a150.159,150.159,0,0,1-36.949,19.98c-21.453,7.766-55.137,4.433-72.9-3-41.522-17.365-60.194-37.657-74.9-84.915V707.133C602.544,693.893,606.984,680.986,607.454,667.174Z"/>
</svg>
