<?xml version="1.0" ?><svg width="68px" height="68px" viewBox="0 0 128 128" id="Layer_1_1_" style="enable-background:new 0 0 64 64;" version="1.1" xml:space="preserve" xmlns="http://www.w3.org/2000/svg" xmlns:xlink="http://www.w3.org/1999/xlink"><path fill="#FFF" d="M61.737,20.001C62.553,18.832,63,17.442,63,16c0-3.86-3.141-7-7-7c-1.437,0-2.829,0.443-4,1.263C50.829,9.443,49.437,9,48,9  c-1.441,0-2.832,0.447-4.001,1.263C42.864,9.469,41.487,9,40,9c-1.437,0-2.829,0.444-4,1.263C34.829,9.444,33.437,9,32,9  c-1.487,0-2.864,0.469-3.999,1.263C26.832,9.447,25.442,9,24,9c-1.437,0-2.828,0.443-4,1.262V4.434L14.277,1H12v9.262  c-1.864,1.302-3,3.45-3,5.738c0,3.86,3.141,7,7,7c1.437,0,2.829-0.444,4-1.263C21.171,22.556,22.563,23,24,23  c1.464,0,2.851-0.461,4-1.262C29.169,22.553,30.559,23,32,23c1.437,0,2.829-0.444,4-1.263C37.171,22.556,38.563,23,40,23  c1.441,0,2.831-0.447,3.999-1.262C45.149,22.539,46.536,23,48,23c0.369,0,0.734-0.035,1.095-0.093C49.039,23.267,49,23.63,49,24  c0,0.37,0.035,0.737,0.093,1.098c-1.761-0.264-3.607,0.152-5.087,1.17C42.87,25.472,41.49,25,40,25c-1.437,0-2.829,0.444-4,1.263  C34.829,25.444,33.437,25,32,25c-1.441,0-2.832,0.447-4.001,1.263C26.864,25.469,25.487,25,24,25c-1.464,0-2.851,0.461-4,1.262  C18.831,25.447,17.441,25,16,25c-1.437,0-2.829,0.443-4,1.263C10.829,25.443,9.437,25,8,25c-3.859,0-7,3.14-7,7  c0,1.487,0.461,2.871,1.255,4.011C1.444,37.178,1,38.564,1,40c0,1.441,0.447,2.832,1.263,4.001C1.47,45.136,1,46.513,1,48  c0,3.859,3.141,7,7,7c1.466,0,2.852-0.462,4-1.262C13.168,54.553,14.558,55,16,55c1.437,0,2.829-0.443,4-1.263  C21.171,54.557,22.563,55,24,55c1.466,0,2.852-0.462,4.001-1.262C29.169,54.553,30.56,55,32,55c1.442,0,2.833-0.448,4.003-1.265  C37.155,54.538,38.544,55,40,55c1.437,0,2.829-0.443,4-1.263v5.829L49.723,63H52v-9.262c1.864-1.302,3-3.449,3-5.738  c0-3.859-3.141-7-7-7c-1.437,0-2.829,0.443-4,1.263C42.829,41.443,41.437,41,40,41c-1.441,0-2.832,0.448-4.001,1.263  C34.864,41.47,33.487,41,32,41c-1.441,0-2.831,0.447-4,1.262C26.832,41.447,25.441,41,24,41c-1.437,0-2.829,0.443-4,1.263  C18.829,41.443,17.437,41,16,41c-0.373,0-0.737,0.038-1.095,0.094C14.961,40.735,15,40.371,15,40c0-0.372-0.038-0.736-0.095-1.096  C15.265,38.961,15.629,39,16,39c1.487,0,2.864-0.47,3.999-1.263C21.167,38.552,22.558,39,24,39c1.441,0,2.83-0.447,3.999-1.262  C29.15,38.54,30.54,39,32,39c1.437,0,2.829-0.443,4-1.263C37.171,38.557,38.563,39,40,39c1.441,0,2.831-0.447,4-1.262  C45.149,38.539,46.536,39,48,39c1.487,0,2.864-0.47,3.999-1.263C53.168,38.553,54.558,39,56,39c3.859,0,7-3.141,7-7  c0-1.437-0.443-2.83-1.263-4C62.557,26.83,63,25.437,63,24C63,22.513,62.531,21.136,61.737,20.001z M59.719,28.668  C60.545,29.588,61,30.772,61,32c0,2.757-2.243,5-5,5c-0.888,0-1.747-0.242-2.503-0.681C54.435,35.128,55,33.63,55,32h-2  c0,2.757-2.243,5-5,5c-2.115,0-4.011-1.339-4.716-3.332l-1.885,0.666c0.258,0.73,0.635,1.392,1.096,1.979  c-1.813,1.014-4.241,0.829-5.827-0.595L36,35.119l-0.668,0.6C34.411,36.545,33.228,37,32,37c-2.091,0-3.979-1.318-4.696-3.28  l-1.879,0.688c0.256,0.7,0.621,1.34,1.068,1.907c-1.522,0.848-3.469,0.848-4.99-0.003C22.437,35.122,23,33.627,23,32h-2  c0,2.757-2.243,5-5,5c-0.648,0-1.27-0.129-1.86-0.369c-0.564-1.028-1.388-1.913-2.422-2.563l-1.064,1.693  C12.123,36.684,13,38.269,13,40c0,0.649-0.128,1.275-0.368,1.867C10.47,43.059,9,45.361,9,48h2c0-2.757,2.243-5,5-5  c1.228,0,2.411,0.455,3.332,1.281l0.668,0.6l0.668-0.6c1.588-1.423,4.016-1.608,5.829-0.593C25.54,44.911,25,46.426,25,48h2  c0-1.419,0.606-2.776,1.664-3.725C29.581,43.453,30.766,43,32,43c2.757,0,5,2.243,5,5h2c0-1.627-0.563-3.122-1.497-4.312  c1.814-1.014,4.242-0.83,5.829,0.593l0.668,0.6l0.668-0.6C45.589,43.455,46.772,43,48,43c2.757,0,5,2.243,5,5  c0,1.775-0.958,3.433-2.501,4.325L50,52.614v8.22l-4-2.4v-5.819l-0.499-0.289c-0.295-0.171-0.575-0.375-0.833-0.606L44,51.119  l-0.668,0.6C42.411,52.545,41.228,53,40,53c-2.066,0-3.945-1.297-4.677-3.229l-1.871,0.709c0.254,0.671,0.608,1.286,1.04,1.833  c-1.522,0.848-3.467,0.848-4.987-0.002c0.468-0.596,0.85-1.269,1.108-2.011l-1.889-0.656C28.025,51.651,26.127,53,24,53  c-1.228,0-2.411-0.455-3.332-1.281L20,51.119l-0.668,0.6c-1.587,1.424-4.015,1.609-5.828,0.594c0.468-0.595,0.849-1.267,1.107-2.009  l-1.889-0.658C12.023,51.652,10.126,53,8,53c-2.757,0-5-2.243-5-5s2.243-5,5-5v-2c-1.63,0-3.128,0.565-4.319,1.503  C3.243,41.747,3,40.888,3,40c0-0.883,0.241-1.738,0.675-2.491c0.903,0.708,1.989,1.204,3.195,1.401l0.32-1.975  C4.763,36.54,3,34.465,3,32c0-2.757,2.243-5,5-5c1.227,0,2.41,0.455,3.333,1.281L12,28.879l0.667-0.598  c1.59-1.424,4.016-1.608,5.828-0.594c-0.461,0.587-0.838,1.249-1.096,1.978l1.885,0.667C19.989,28.339,21.885,27,24,27  c2.757,0,5,2.243,5,5h2c0-1.627-0.563-3.122-1.497-4.311c1.813-1.015,4.24-0.832,5.83,0.593L36,28.879l0.667-0.598  C37.59,27.455,38.773,27,40,27c2.757,0,5,2.243,5,5h2c0-1.627-0.563-3.122-1.497-4.312c1.325-0.753,2.968-0.878,4.382-0.306  c0.254,0.456,0.553,0.89,0.908,1.285l1.488-1.336C51.455,26.412,51,25.228,51,24c0-0.654,0.131-1.283,0.373-1.88  c0.459-0.254,0.896-0.555,1.294-0.912l-1.334-1.489C50.41,20.545,49.227,21,48,21c-2.115,0-4.011-1.339-4.716-3.332l-1.885,0.667  c0.258,0.729,0.634,1.391,1.095,1.978c-1.814,1.014-4.238,0.83-5.828-0.594L36,19.121l-0.667,0.598  c-1.589,1.423-4.013,1.608-5.828,0.594c0.461-0.586,0.837-1.248,1.095-1.976l-1.885-0.668C28.01,19.661,26.114,21,24,21  c-1.227,0-2.41-0.455-3.333-1.281L20,19.121l-0.667,0.598C18.41,20.545,17.227,21,16,21c-2.757,0-5-2.243-5-5  c0-1.774,0.958-3.432,2.501-4.326L14,11.385V3.166l4,2.4v5.819l0.499,0.289c0.294,0.17,0.574,0.374,0.833,0.607L20,12.879  l0.667-0.598c1.591-1.424,4.017-1.608,5.83-0.593C25.563,12.878,25,14.373,25,16h2c0-2.757,2.243-5,5-5  c1.227,0,2.41,0.455,3.333,1.281L36,12.879l0.667-0.598C37.59,11.455,38.773,11,40,11c2.757,0,5,2.243,5,5h2  c0-1.627-0.563-3.122-1.497-4.311c1.815-1.015,4.239-0.831,5.83,0.593L52,12.879l0.667-0.598C53.59,11.455,54.773,11,56,11  c2.757,0,5,2.243,5,5c0,0.888-0.242,1.747-0.681,2.503C59.128,17.565,57.63,17,56,17v2c2.757,0,5,2.243,5,5  c0,1.228-0.455,2.412-1.281,3.332L59.119,28L59.719,28.668z"/></svg>