<?xml version="1.0" encoding="iso-8859-1"?>
<!-- Generator: Adobe Illustrator 18.0.0, SVG Export Plug-In . SVG Version: 6.00 Build 0)  -->
<!DOCTYPE svg PUBLIC "-//W3C//DTD SVG 1.1//EN" "http://www.w3.org/Graphics/SVG/1.1/DTD/svg11.dtd">
<svg version="1.1" id="Capa_1" xmlns="http://www.w3.org/2000/svg" xmlns:xlink="http://www.w3.org/1999/xlink" x="0px" y="0px"
	 viewBox="0 0 304.591 304.591" style="enable-background:new 0 0 304.591 304.591;" xml:space="preserve">
<g>
	<g>
		<path fill="#fff" d="M252.39,31.406l-17.134-24.19c-5.453-7.7-16.154-9.527-23.856-4.073l-14.498,10.269
			c-18.835,13.34-41.017,20.151-64.176,19.711c-7.647-0.126-15.021,2.12-21.289,6.56c-0.001,0.001-0.001,0.001-0.001,0.001
			c-7.78,5.511-12.949,13.723-14.554,23.12c-0.444,2.597-0.59,5.198-0.468,7.768c-27.025,5.94-47.355,30.658-47.355,60.172
			c0,11.379,3.033,22.039,8.295,31.193c-5.175,6.195-8.295,14.162-8.295,22.846c0,7.679,2.403,14.997,6.951,21.166
			c13.548,18.367,21.009,41.012,21.009,63.762v17.768c0,9.437,7.677,17.113,17.113,17.113h29.644
			c9.437,0,17.113-7.677,17.113-17.113V269.71c0-23.078,7.265-45.127,21.009-63.763c4.548-6.168,6.951-13.486,6.951-21.165
			c0-8.684-3.121-16.651-8.295-22.846c3.291-5.724,5.715-12.033,7.062-18.745c4.636-1.006,9.07-2.93,13.058-5.755
			c6.268-4.439,10.851-10.631,13.253-17.905c7.16-21.673,21.327-40.85,39.891-53.998l14.5-10.269
			C256.017,49.807,257.844,39.105,252.39,31.406z M100.293,85.08c0.773,1.501,1.653,2.96,2.646,4.362
			c5.222,7.372,13.064,12.411,21.726,14.268c-1.121,8.785,1.028,17.858,6.249,25.229c5.153,7.275,12.668,12.266,21.306,14.195
			c-0.885,3.315-2.11,6.485-3.643,9.461c-4.671-2.247-9.902-3.508-15.423-3.508c-9.033,0-17.679,3.489-24.2,9.483
			c-6.521-5.994-15.168-9.483-24.201-9.483c-5.521,0-10.752,1.261-15.422,3.508c-3.36-6.52-5.272-13.958-5.272-21.853
			C64.059,108.152,79.669,89.277,100.293,85.08z M149.825,197.044c-15.659,21.232-23.937,46.36-23.937,72.666v17.768
			c0,1.165-0.948,2.113-2.113,2.113H94.132c-1.165,0-2.113-0.948-2.113-2.113V269.71c0-25.932-8.501-51.738-23.937-72.665
			c-2.632-3.57-4.023-7.811-4.023-12.263c0-11.411,9.283-20.694,20.694-20.694c7.343,0,13.985,3.769,17.768,10.082
			c1.354,2.262,3.798,3.646,6.434,3.646s5.079-1.384,6.434-3.646c3.782-6.313,10.424-10.082,17.767-10.082
			c11.411,0,20.694,9.283,20.694,20.694C153.849,189.234,152.457,193.474,149.825,197.044z M239.646,43.023l-14.499,10.269
			c-21.16,14.987-37.306,36.84-45.464,61.534c-1.39,4.209-4.046,7.795-7.68,10.369c-4.511,3.196-9.995,4.442-15.445,3.512
			c-5.449-0.93-10.209-3.927-13.404-8.438c-4.243-5.992-5.007-13.591-2.042-20.326c1.063-2.412,0.779-5.205-0.744-7.356
			c-1.412-1.994-3.699-3.165-6.119-3.165c-0.19,0-0.382,0.007-0.574,0.021c-7.331,0.565-14.251-2.68-18.495-8.671
			c-6.596-9.312-4.386-22.254,4.926-28.85c3.635-2.574,7.86-3.903,12.332-3.803c26.368,0.515,51.666-7.265,73.134-22.469
			l14.497-10.268c0.953-0.674,2.274-0.447,2.947,0.502l17.134,24.19C240.823,41.027,240.597,42.349,239.646,43.023z"/>
	</g>
	<g>
		<path fill="#fff" d="M136.885,53.387c-9.708,0-17.605,7.898-17.605,17.606c0,4.143,3.357,7.5,7.5,7.5s7.5-3.357,7.5-7.5
			c0-1.438,1.169-2.606,2.605-2.606c4.143,0,7.5-3.357,7.5-7.5S141.027,53.387,136.885,53.387z"/>
	</g>
</g>
<g>
</g>
<g>
</g>
<g>
</g>
<g>
</g>
<g>
</g>
<g>
</g>
<g>
</g>
<g>
</g>
<g>
</g>
<g>
</g>
<g>
</g>
<g>
</g>
<g>
</g>
<g>
</g>
<g>
</g>
</svg>
