<?xml version="1.0" encoding="iso-8859-1"?>
<!-- Generator: Adobe Illustrator 18.0.0, SVG Export Plug-In . SVG Version: 6.00 Build 0)  -->
<!DOCTYPE svg PUBLIC "-//W3C//DTD SVG 1.1//EN" "http://www.w3.org/Graphics/SVG/1.1/DTD/svg11.dtd">
<svg version="1.1" id="Capa_1" xmlns="http://www.w3.org/2000/svg" xmlns:xlink="http://www.w3.org/1999/xlink" x="0px" y="0px"
	 viewBox="0 0 320 320" style="enable-background:new 0 0 320 320;" xml:space="preserve">
<g>
	<path fill="#fff" d="M288.166,169.076l-21.125-42.639C263.163,55.652,222.663,0,158.212,0c-107.6,0-128.28,57.482-128.28,116.265
		c0,29.032,12.377,55.862,32.416,75.408L35.653,307.356c-0.707,3.065,0.022,6.286,1.98,8.748c1.958,2.462,4.932,3.896,8.078,3.896
		h42.762l31.056-126.776c2.323-10.436-0.622-21.354-7.894-29.191c-12.011-12.944-17.797-29.461-15.981-47.52
		c4.36-43.351,35.774-65.027,65.027-65.027c21.259,0,63.36,9.75,63.36,42.935c0,10.183-5.087,12.756-21.502,14.699
		c-7.087,0.839-13.126,5.553-15.651,12.228c-1.434,3.791-3.27,4.759-6.622,4.759c-3.495,0-8.638-1.051-16.696-1.051
		c-4.433,0-16.889,16.042-18.226,22.282c-3.289,15.351,4.832,29.587,3.044,37.828c-6.767,31.2-22.757,94.035-31.345,134.834h17.857
		c5.453,0,10.184-3.764,11.41-9.076l6.523-28.268h52.743c24.023,0,44.657-18.759,49.013-44.629
		c2.517-14.977,5.24-31.967,7.522-48.066h15.502c4.53,0,8.703-2.694,10.896-7.035C290.704,178.584,290.572,173.281,288.166,169.076z
		 M262.112,174.961h-13.024l-1.828,12.895c-1.969,13.891-4.48,29.934-7.463,47.681c-3.133,18.611-17.525,32.119-34.221,32.119
		h-52.743h-8.47c1.977-8.32,3.967-16.618,5.881-24.599c5.049-21.059,9.819-40.95,12.804-54.711
		c1.457-6.719-0.027-13.36-1.462-19.781c-1.333-5.962-2.71-12.122-1.662-17.649c1.045-2.483,4.966-7.837,7.726-10.753
		c2.278,0.119,4.264,0.319,6.094,0.503c2.254,0.227,4.383,0.441,6.523,0.441c9.793,0,17.128-5.133,20.653-14.452
		c0.547-1.445,1.843-2.456,3.383-2.638c12.141-1.437,34.739-4.111,34.739-29.595c0-20.211-11.366-37.02-32.004-47.33
		c-19.697-9.84-40.461-10.604-46.356-10.604c-35.806,0-74.766,26.973-79.952,78.526c-2.21,21.972,4.861,43.005,19.91,59.224
		c3.883,4.185,5.477,10.006,4.277,15.596L76.704,305H51.591l25.374-109.954l1.897-8.22l-6.039-5.891
		c-17.985-17.542-27.889-40.509-27.889-64.67c0-31.544,6.6-54.576,20.178-70.413c8.223-9.592,18.973-16.749,32.864-21.882
		C114.083,18.018,134.35,15,158.212,15c26.139,0,48.799,10.784,65.531,31.186c16.501,20.121,26.559,48.913,28.321,81.072
		l0.168,3.077l1.368,2.761l20.741,41.864H262.112z"/>
	<path fill="#fff" d="M86.509,42.07c-1.502,0-3.019,0.45-4.338,1.387c-1.111,0.79-27.221,19.75-26.02,54.851c0.14,4.053,3.468,7.243,7.491,7.243
		c0.087,0,0.174-0.001,0.262-0.004c4.14-0.143,7.381-3.613,7.239-7.753C70.226,70.999,89.956,56.34,90.879,55.671
		c3.359-2.403,4.143-7.073,1.75-10.443C91.167,43.169,88.856,42.07,86.509,42.07z"/>
	<!-- <circle cx="105.635" cy="39.323" r="7.5"/> -->
</g>
<g>
</g>
<g>
</g>
<g>
</g>
<g>
</g>
<g>
</g>
<g>
</g>
<g>
</g>
<g>
</g>
<g>
</g>
<g>
</g>
<g>
</g>
<g>
</g>
<g>
</g>
<g>
</g>
<g>
</g>
</svg>
