<?xml version="1.0" encoding="iso-8859-1"?>
<!-- Generator: Adobe Illustrator 19.0.0, SVG Export Plug-In . SVG Version: 6.00 Build 0)  -->
<svg version="1.1" id="Layer_1" xmlns="http://www.w3.org/2000/svg" xmlns:xlink="http://www.w3.org/1999/xlink" x="0px" y="0px"
	 viewBox="0 0 512 512" style="enable-background:new 0 0 512 512;" xml:space="preserve">
<g>
	<g>
		<path fill="#fff" d="M393.823,44.497c-48.176-56.934-133.912-53.108-178.549,1.908c-16.632-7.919-28.487-17.487-32.752-26.75
			c-6.445-13.993-21.45-21.854-36.483-19.115l-33.098,6.016c-20.122,3.658-32.355,24.361-25.748,43.645
			c14.136,41.25,51.221,74.606,105.047,94.807c3.367,15.184,9.202,26.844,15.058,36.039c-19.639,12.776-32.474,34.948-32.474,59.6
			c0,18.659,7.41,36.107,19.742,49.04c-18.908,16.073-32.154,37.811-37.757,62.157c-56.169,8.949-101.133,47.16-117.28,113.155
			c-4.611,18.854,7.808,37.683,26.908,40.944c35.483,6.059,34.503,6.056,38.335,6.056c14.967-0.001,28.309-10.007,32.308-25.038
			c6.523-24.518,19.547-36.253,41.718-37.121c35.162,44.645,97.196,56.727,146.447,29.861
			c101.003-55.092,134.101-130.375,144.081-183.828C493.429,166.737,404.098,56.639,393.823,44.497z M429.41,288.422
			c-8.365,44.804-36.601,108.177-123.611,155.637c-34.339,18.725-77.768,8.214-99.323-25.25c-3.438-5.335-9.171-8.756-15.499-9.246
			c-45.75-3.555-77.937,18.809-91.356,60.857l-18.65-3.183c13.979-46.897,47.317-74.008,94.58-76.608
			c10.138-0.558,18.304-8.521,19.119-18.64c2.052-25.468,16.632-47.958,39-60.159c3.05-1.665,6.037-3.398,8.877-5.154
			c14.944-9.234,11.853-31.943-5.09-36.788c-12.974-3.71-22.036-15.734-22.036-29.24c0-15.14,11.29-28.092,26.261-30.129
			c14.803-2.014,22.438-18.838,14.201-31.306c-9.306-14.083-22.536-25.222-25.411-51.588c-0.865-7.936-6.303-14.63-13.894-17.103
			c-56.087-18.269-78.673-46.437-87.753-65.588l19.267-3.501c14.257,25.318,44.238,40.591,67.58,49.076
			c9.246,3.36,19.569-0.39,24.5-8.901c26.031-44.924,88.866-50.813,122.657-10.884l0.001,0.001
			C371.822,81.35,450.079,177.708,429.41,288.422z"/>
	</g>
</g>
<g>
</g>
<g>
</g>
<g>
</g>
<g>
</g>
<g>
</g>
<g>
</g>
<g>
</g>
<g>
</g>
<g>
</g>
<g>
</g>
<g>
</g>
<g>
</g>
<g>
</g>
<g>
</g>
<g>
</g>
</svg>
