<?xml version="1.0" encoding="UTF-8"?>
<svg width="180px" height="180px" viewBox="0 0 180 180" version="1.1" xmlns="http://www.w3.org/2000/svg" xmlns:xlink="http://www.w3.org/1999/xlink">
   <style>
     .favicon-color { fill: #000000 }
     @media (prefers-color-scheme: dark) {
     .favicon-color { fill: #ffffff }
     }
   </style>
    <title>favicon 180X180-Black-SVG@1x</title>
    <g id="favicon-180X180-Black-SVG" stroke="none" stroke-width="1" fill="none" fill-rule="evenodd">
        <g id="Group-106-Copy" class="favicon-color" transform="translate(15.000000, 0.000000)" fill-rule="nonzero">
            <g id="Group-104">
                <polygon id="Path-35" points="86.0735973 24.6847434 99.7751241 28.4532834 65.0384749 154.747586 51.3369481 150.979046"></polygon>
                <path d="M85.4929692,27.3407883 C82.2658621,45.3112935 94.2168707,62.4212821 112.182584,65.5317729 C130.114067,68.6363374 147.241353,56.6158012 150.462342,38.6793677 C153.689449,20.7088624 141.73844,3.59887382 123.772727,0.488383045 C105.841243,-2.61618144 88.7139577,9.40435472 85.4929692,27.3407883 Z M121.348488,14.4904114 C131.53978,16.2548789 138.310818,25.9488208 136.475735,36.1676811 C134.634534,46.4206131 124.832343,53.3001384 114.606823,51.5297446 C104.415531,49.765277 97.6444934,40.0713352 99.4795757,29.8524748 C101.320776,19.5995428 111.122968,12.7200175 121.348488,14.4904114 Z" id="Oval"></path>
                <path d="M0.5261763,141.320632 C-2.70093073,159.291138 9.25007786,176.401126 27.2157908,179.511617 C45.1472745,182.616181 62.2745604,170.595645 65.4955489,152.659212 C68.7226559,134.688706 56.7716473,117.578718 38.8059343,114.468227 C20.8744506,111.363663 3.74716481,123.384199 0.5261763,141.320632 Z M36.3816955,128.470255 C46.5729867,130.234723 53.3440247,139.928665 51.5089424,150.147525 C49.6677415,160.400457 39.8655502,167.279982 29.6400297,165.509589 C19.4487385,163.745121 12.6777005,154.051179 14.5127828,143.832319 C16.3539836,133.579387 26.1561749,126.699862 36.3816955,128.470255 Z" id="Oval-Copy-34"></path>
                <polygon id="Path-44" points="123.158557 82.8956192 123.158557 97.105958 27.8299606 97.105958 27.8299606 82.8956192"></polygon>
            </g>
        </g>
    </g>
</svg>